<?xml version="1.0"?>
<svg xmlns="http://www.w3.org/2000/svg" xmlns:xlink="http://www.w3.org/1999/xlink" xmlns:svgjs="http://svgjs.com/svgjs" version="1.1" width="512" height="512" x="0" y="0" viewBox="0 0 512 512" style="enable-background:new 0 0 512 512" xml:space="preserve" class=""><g><path xmlns="http://www.w3.org/2000/svg" d="m512 256c0 141.386719-114.613281 256-256 256s-256-114.613281-256-256 114.613281-256 256-256 256 114.613281 256 256zm0 0" fill="#47b2e4" data-original="#4dd0e1" style="" class=""/><path xmlns="http://www.w3.org/2000/svg" d="m322.097656 274.910156c-8.160156-25.085937-17.152344-49.871094-26.976562-74.351562 57.996094-27.210938 110.515625-64.816406 154.957031-110.957032-6.984375-8.082031-14.464844-15.726562-22.398437-22.882812-41.558594 43.355469-90.695313 78.738281-144.992188 104.402344-24.679688-56.726563-53.726562-111.453125-86.878906-163.679688-10.804688 2.613282-21.421875 5.933594-31.792969 9.933594 34.214844 52.960938 64.078125 108.613281 89.296875 166.402344-4.464844 1.757812-8.832031 3.742187-13.359375 5.390625-75.511719 27.574219-156.625 36.234375-236.257813 25.230469-1.726562 10.523437-2.792968 21.140624-3.199218 31.792968 23.328125 3.25 46.847656 4.914063 70.398437 4.976563 61.40625-.074219 122.324219-10.890625 180-31.96875 5.027344-1.824219 9.859375-4.015625 14.816407-5.984375 9.21875 22.976562 17.675781 46.242187 25.378906 69.792968-10.050782 2.992188-20.066406 6.128907-29.984375 9.726563-75.429688 27.46875-143.539063 71.894531-199.074219 129.859375 6.984375 8.074219 14.464844 15.703125 22.402344 22.847656 52.261718-54.746094 116.449218-96.703125 187.566406-122.609375 9.40625-3.425781 18.929688-6.398437 28.480469-9.246093 17.761719 60.308593 30.601562 121.960937 38.398437 184.351562 10.519532-3.621094 20.785156-7.929688 30.738282-12.898438-8.085938-60.734374-20.832032-120.757812-38.128907-179.535156 57.960938-13.257812 117.851563-15.886718 176.75-7.761718 1.726563-10.53125 2.796875-21.15625 3.203125-31.820313-63.136718-8.546875-127.304687-5.5-189.34375 8.988281zm0 0" fill="#ffffff" data-original="#ffffff" style="" class=""/></g></svg>
