<?xml version="1.0"?>
<svg xmlns="http://www.w3.org/2000/svg" xmlns:xlink="http://www.w3.org/1999/xlink" xmlns:svgjs="http://svgjs.com/svgjs" version="1.1" width="512" height="512" x="0" y="0" viewBox="0 0 35.096 35.096" style="enable-background:new 0 0 512 512" xml:space="preserve"><g>
<g xmlns="http://www.w3.org/2000/svg">
	<g id="c55_speedometer">
		<path d="M28.955,10.215c-3.066-2.629-7.047-4.229-11.408-4.229C7.856,5.986,0,13.842,0,23.536c0,0.26,0.026,2.686,0.037,2.945    v2.628h34.988v-2.437l0.033-0.191c0.011-0.26,0.038-2.686,0.038-2.945C35.097,14.934,28.955,10.215,28.955,10.215z M4.269,26.482    c-0.014-0.16,0.006-2.49-0.005-2.65h3.6V22.67H4.517c0-0.014-0.253,0.002-0.253,0.002c0.142-3.014,1.29-6.02,3.458-8.391    l0.09-0.098l0.162,0.141l2.395,2.397l0.751-0.754l-2.544-2.542c2.304-2.105,5.225-3.313,8.344-3.453h0.18    c0,0,0.075-0.004,0.07,0.045v3.549h0.958V9.971c0.474,0.02,0.946,0.076,1.412,0.148c2.678,0.354,5.167,1.51,7.181,3.351    l-2.539,2.54l0.705,0.71l2.439-2.44l0.134-0.107l0.116,0.152c2.108,2.305,3.314,5.225,3.457,8.344h-3.596v1.162l3.612-0.004    c0,0,0.003,2.5-0.009,2.646L4.269,26.482z M22.27,18.094c0,0-5.708,1.752-6.801,2.842c-1.095,1.096-1.095,2.867,0.002,3.963    c1.091,1.095,2.863,1.095,3.959,0C20.521,23.803,22.27,18.094,22.27,18.094z" fill="#47b2e4" data-original="#000000" style=""/>
	</g>
	<g id="Capa_1_13_">
	</g>
</g>
<g xmlns="http://www.w3.org/2000/svg">
</g>
<g xmlns="http://www.w3.org/2000/svg">
</g>
<g xmlns="http://www.w3.org/2000/svg">
</g>
<g xmlns="http://www.w3.org/2000/svg">
</g>
<g xmlns="http://www.w3.org/2000/svg">
</g>
<g xmlns="http://www.w3.org/2000/svg">
</g>
<g xmlns="http://www.w3.org/2000/svg">
</g>
<g xmlns="http://www.w3.org/2000/svg">
</g>
<g xmlns="http://www.w3.org/2000/svg">
</g>
<g xmlns="http://www.w3.org/2000/svg">
</g>
<g xmlns="http://www.w3.org/2000/svg">
</g>
<g xmlns="http://www.w3.org/2000/svg">
</g>
<g xmlns="http://www.w3.org/2000/svg">
</g>
<g xmlns="http://www.w3.org/2000/svg">
</g>
<g xmlns="http://www.w3.org/2000/svg">
</g>
</g></svg>
